<svg width="56" height="56" viewBox="0 0 56 56" fill="none" xmlns="http://www.w3.org/2000/svg">
  <rect width="56" height="56" rx="12" fill="#EBF8FF"/>
  <path d="M28 14C30.7614 14 33 16.2386 33 19V21H35C36.1046 21 37 21.8954 37 23V39C37 40.1046 36.1046 41 35 41H21C19.8954 41 19 40.1046 19 39V23C19 21.8954 19.8954 21 21 21H23V19C23 16.2386 25.2386 14 28 14ZM35 23H21V39H35V23ZM31 19V21H25V19C25 17.3431 26.3431 16 28 16C29.6569 16 31 17.3431 31 19Z" fill="#3B82F6"/>
  <circle cx="28" cy="28" r="2" fill="#3B82F6"/>
  <path d="M26 32H30V34H26V32Z" fill="#3B82F6"/>
</svg>