<svg width="56" height="56" viewBox="0 0 56 56" fill="none" xmlns="http://www.w3.org/2000/svg">
  <rect width="56" height="56" rx="12" fill="#F0FDF4"/>
  <path d="M28 14L30.09 20.26L37 22L30.09 23.74L28 30L25.91 23.74L19 22L25.91 20.26L28 14Z" fill="#22C55E"/>
  <path d="M38 28L39.18 31.82L43 33L39.18 34.18L38 38L36.82 34.18L33 33L36.82 31.82L38 28Z" fill="#22C55E"/>
  <path d="M18 28L19.18 31.82L23 33L19.18 34.18L18 38L16.82 34.18L13 33L16.82 31.82L18 28Z" fill="#22C55E"/>
  <circle cx="28" cy="42" r="3" fill="#22C55E"/>
</svg>